<?xml version="1.0" encoding="utf-8"?>
<!-- Generator: Adobe Illustrator 16.0.0, SVG Export Plug-In . SVG Version: 6.00 Build 0)  -->
<!DOCTYPE svg PUBLIC "-//W3C//DTD SVG 1.1//EN" "http://www.w3.org/Graphics/SVG/1.1/DTD/svg11.dtd">
<svg version="1.1" id="Layer_1" xmlns="http://www.w3.org/2000/svg" xmlns:xlink="http://www.w3.org/1999/xlink" x="0px" y="0px"
	 width="60px" height="60px" viewBox="0 0 60 60" enable-background="new 0 0 60 60" xml:space="preserve">
<g id="g24399" transform="matrix(0.81249983,0,0,0.81249983,-96.062435,8.749998)">
	<path id="path6615" fill="#020202" d="M155.154-5.846c-17.673,0-32,14.327-32,32s14.327,32,32,32s32-14.327,32-32
		S172.827-5.846,155.154-5.846z"/>
	<path id="path6617" fill="#FFFFFF" d="M158.151,45.654h-8.058V26.151h-4.026v-6.72h4.026v-4.035c0-5.482,2.272-8.743,8.731-8.743
		h5.376v6.722h-3.361c-2.514,0-2.68,0.939-2.68,2.691l-0.011,3.363h6.089l-0.714,6.721h-5.375v19.501h0.002V45.654z"/>
</g>
</svg>
