<?xml version="1.0" encoding="utf-8"?>
<!-- Generator: Adobe Illustrator 16.0.0, SVG Export Plug-In . SVG Version: 6.00 Build 0)  -->
<!DOCTYPE svg PUBLIC "-//W3C//DTD SVG 1.1//EN" "http://www.w3.org/Graphics/SVG/1.1/DTD/svg11.dtd">
<svg version="1.1" id="Layer_1" xmlns="http://www.w3.org/2000/svg" xmlns:xlink="http://www.w3.org/1999/xlink" x="0px" y="0px"
	 width="60px" height="60px" viewBox="0 0 60 60" enable-background="new 0 0 60 60" xml:space="preserve">
<g id="g24422" transform="matrix(0.81249983,0,0,0.81249983,-96.06243,-111.24995)">
	<path id="path3928" fill="#020202" d="M155.049,141.846c-17.673,0-32,14.327-32,32s14.327,32,32,32s32-14.327,32-32
		S172.722,141.846,155.049,141.846z"/>
	<path id="path3930" fill="#FFFFFF" d="M151.174,157.933c-1.178,0-2.466,0.151-3.845,0.439c-1.35,0.286-2.641,0.933-3.875,1.938
		c-0.918,0.804-1.602,1.716-2.061,2.75c-0.46,1.006-0.689,2.011-0.689,3.016c0,0.833,0.154,1.668,0.47,2.5
		c0.315,0.804,0.772,1.525,1.375,2.156c0.602,0.632,1.358,1.145,2.25,1.547c0.888,0.374,1.898,0.562,3.047,0.562h0.688
		c0.231-0.029,0.475-0.065,0.703-0.095c-0.115,0.258-0.227,0.524-0.312,0.781c-0.087,0.231-0.125,0.535-0.125,0.906
		c0,0.661,0.132,1.213,0.392,1.672c0.287,0.432,0.59,0.85,0.906,1.25c-0.488,0.029-1.076,0.083-1.734,0.141
		c-0.661,0.059-1.363,0.155-2.109,0.298c-0.745,0.143-1.506,0.333-2.281,0.561c-0.745,0.258-1.45,0.583-2.108,0.984
		c-1.263,0.746-2.119,1.618-2.578,2.594c-0.488,1.005-0.734,1.881-0.734,2.656c0,0.804,0.189,1.579,0.562,2.297
		c0.373,0.746,0.944,1.394,1.719,1.969c0.775,0.576,1.742,1.047,2.891,1.391c1.177,0.346,2.543,0.517,4.094,0.517
		c1.839,0,3.452-0.246,4.859-0.734c1.435-0.459,2.63-1.084,3.578-1.859c0.947-0.745,1.668-1.601,2.156-2.577s0.733-1.964,0.733-2.97
		c0-0.745-0.112-1.41-0.311-1.983c-0.202-0.573-0.469-1.088-0.812-1.547c-0.316-0.459-0.713-0.894-1.172-1.298
		c-0.43-0.4-0.869-0.799-1.328-1.202l-1.547-1.203c-0.23-0.202-0.476-0.446-0.733-0.703c-0.258-0.287-0.392-0.668-0.392-1.156
		c0-0.488,0.132-0.887,0.392-1.203c0.257-0.315,0.524-0.619,0.811-0.906c0.459-0.344,0.912-0.703,1.344-1.078
		c0.43-0.4,0.811-0.837,1.156-1.297c0.344-0.488,0.626-1.022,0.828-1.625c0.201-0.602,0.297-1.304,0.297-2.108
		c0-0.804-0.114-1.524-0.344-2.156c-0.23-0.631-0.513-1.18-0.828-1.642c-0.316-0.488-0.641-0.887-0.984-1.202
		c-0.345-0.345-0.648-0.626-0.905-0.828h2.672l2.75-1.547h-8.863V157.933z M166.862,158.48v5.641h-5.641v2.048h5.641v5.641h2.047
		v-5.641h5.641v-2.048h-5.641v-5.641H166.862z M148.455,159.355c0.889,0,1.667,0.285,2.328,0.828
		c0.69,0.518,1.258,1.166,1.719,1.969c0.459,0.804,0.803,1.675,1.031,2.594c0.231,0.919,0.344,1.757,0.344,2.531
		c0,0.404-0.058,0.913-0.172,1.517c-0.114,0.602-0.417,1.153-0.905,1.641c-0.346,0.345-0.782,0.63-1.328,0.859
		c-0.518,0.231-1.048,0.345-1.595,0.344c-0.918,0-1.718-0.264-2.405-0.781c-0.661-0.544-1.228-1.209-1.689-1.984
		c-0.43-0.775-0.755-1.594-0.983-2.483c-0.203-0.889-0.312-1.703-0.312-2.422c0-0.573,0.056-1.126,0.172-1.673
		c0.143-0.543,0.407-1.054,0.781-1.516c0.344-0.43,0.781-0.772,1.328-1.031C147.314,159.487,147.881,159.355,148.455,159.355
		L148.455,159.355z M149.955,178.573h0.609h0.516c0.143,0,0.297,0,0.47,0.03c0.803,0.576,1.505,1.103,2.108,1.562
		c0.602,0.459,1.095,0.898,1.469,1.328c0.374,0.43,0.655,0.867,0.828,1.297c0.202,0.459,0.297,0.954,0.297,1.5
		c0,1.35-0.549,2.452-1.641,3.312c-1.061,0.891-2.62,1.344-4.688,1.344c-2.326,0-4.185-0.493-5.562-1.469
		c-1.35-0.976-2.016-2.232-2.016-3.781c0-0.775,0.135-1.422,0.422-1.939c0.316-0.517,0.674-0.952,1.078-1.297
		c0.4-0.345,0.799-0.626,1.203-0.828c0.429-0.172,0.769-0.288,1-0.375c0.459-0.143,0.934-0.275,1.422-0.391
		c0.488-0.085,0.944-0.161,1.375-0.219C149.276,178.623,149.639,178.602,149.955,178.573L149.955,178.573z"/>
</g>
</svg>
