<?xml version="1.0" encoding="utf-8"?>
<!-- Generator: Adobe Illustrator 16.0.0, SVG Export Plug-In . SVG Version: 6.00 Build 0)  -->
<!DOCTYPE svg PUBLIC "-//W3C//DTD SVG 1.1//EN" "http://www.w3.org/Graphics/SVG/1.1/DTD/svg11.dtd">
<svg version="1.1" id="Layer_1" xmlns="http://www.w3.org/2000/svg" xmlns:xlink="http://www.w3.org/1999/xlink" x="0px" y="0px"
	 width="60px" height="60px" viewBox="0 0 60 60" enable-background="new 0 0 60 60" xml:space="preserve">
<g id="g24426" transform="matrix(0.81249983,0,0,0.81249983,-96.062439,13.750013)">
	<path id="path6697" fill="#020202" d="M155.154-12c-17.673,0-32,14.327-32,32s14.327,32,32,32c17.672,0,31.999-14.327,31.999-32
		S172.827-12,155.154-12z"/>
	<path id="path6699" fill="#FFFFFF" d="M135.654,26.013c2.538,2.346,9.055,4.569,14.359-0.631c-0.953,0.149-1.75-0.031-2.355-0.63
		c-0.573-0.569-0.606-1.156-0.298-1.691c0.25-0.435,0.775-0.743,1.293-1.061c-0.939,0.174-1.739,0.084-2.454-0.282
		c-0.96-0.489-1.894-1.007-2.155-2.072c0.586-0.618,1.239-1.168,2.653-0.962c-1.329-0.444-2.52-1.023-3.382-1.891
		c-0.84-0.845-0.927-1.394-1.061-2.058c0.733-0.272,1.499-0.412,2.321-0.332c-1.858-0.95-2.648-2.256-3.084-3.68
		c-0.131-0.43-0.156-0.84-0.1-1.261c7.528,2.843,11.053,4.883,13,6.799c0.875-2.332,2.916-7.607,5.969-9.418
		c0.014,0.287-0.101,0.596-0.332,0.928c0.904-0.504,1.608-1.309,2.851-1.293c-0.142,0.589-0.553,1.06-1.358,1.359
		c0.811-0.31,1.635-0.575,2.487-0.73c0.791-0.143,0.779,0.481,0.332,0.796c-0.907,0.642-1.871,0.721-2.819,1.029
		c2.904,0.072,5.276,1.447,7.13,4.444c0.618,0.995,1.031,1.993,1.127,3.084c1.238,0.346,2.471,0.417,3.715,0.2
		c0.34-0.061,0.657-0.125,0.963-0.266c-0.484,0.726-1.043,1.322-1.826,1.59c-0.746,0.258-1.494,0.511-2.321,0.531
		c1.344,0.508,2.825,0.537,4.344,0.433c-1.858,1.787-3.281,1.744-4.709,1.724c-0.625,2.644-1.906,5.28-4.608,7.695
		c-3.548,3.166-7.364,4.677-11.309,5.007c-3.697,0.31-7.273,0.268-11.175-1.559c-2.893-1.353-5.318-3.218-7.197-5.803h-0.001V26.013
		z"/>
</g>
</svg>
